#tb 0: 1/5
#media_type 0: video
#codec_id 0: rawvideo
#dimensions 0: 64x64
#sar 0: 0/1
0,          0,          0,        1,    16384, 0x4d39b4cb
0,          1,          1,        1,    16384, 0x2a8d14b4
0,          2,          2,        1,    16384, 0xe26793cb
0,          3,          3,        1,    16384, 0x62b5ed43
0,          4,          4,        1,    16384, 0x5ae86c21
0,          5,          5,        1,    16384, 0x416d184a
0,          6,          6,        1,    16384, 0x33f59d3e
0,          7,          7,        1,    16384, 0x3d0ffd9c
0,          8,          8,        1,    16384, 0x35bac4c6
0,          9,          9,        1,    16384, 0xa1cd8ffb
0,         10,         10,        1,    16384, 0xf7dc38d2
